<svg xmlns="http://www.w3.org/2000/svg" width="30" height="30" viewBox="0 0 30 30" fill="none">
<g clip-path="url(#clip0_2_71)">
<g opacity="0.4">
<path d="M29.5 15C29.5 6.99187 23.0081 0.5 15 0.5C6.99187 0.5 0.5 6.99187 0.5 15C0.5 23.0081 6.99187 29.5 15 29.5C23.0081 29.5 29.5 23.0081 29.5 15Z" stroke="white"/>
<path d="M21.6667 8.33331H8.33335C7.41288 8.33331 6.66669 9.07951 6.66669 9.99997V10.8333C6.66669 11.7538 7.41288 12.5 8.33335 12.5H21.6667C22.5872 12.5 23.3334 11.7538 23.3334 10.8333V9.99997C23.3334 9.07951 22.5872 8.33331 21.6667 8.33331Z" stroke="white" stroke-width="2" stroke-linecap="round" stroke-linejoin="round"/>
<path d="M8.33331 12.5V20C8.33331 20.442 8.50891 20.866 8.82147 21.1785C9.13403 21.4911 9.55795 21.6667 9.99998 21.6667H20C20.442 21.6667 20.8659 21.4911 21.1785 21.1785C21.4911 20.866 21.6666 20.442 21.6666 20V12.5" stroke="white" stroke-width="2" stroke-linecap="round" stroke-linejoin="round"/>
<path d="M13.3333 15.8333H16.6666" stroke="white" stroke-width="2" stroke-linecap="round" stroke-linejoin="round"/>
</g>
</g>
<defs>
<clipPath id="clip0_2_71">
<rect width="30" height="30" fill="white"/>
</clipPath>
</defs>
</svg>
